<?xml version="1.0" encoding="UTF-8"?>
<svg width="1200pt" height="1200pt" version="1.1" viewBox="0 0 1200 1200" xmlns="http://www.w3.org/2000/svg">
 <g fill="#fff">
  <path d="m627.55 524.43c-18.027 18.02-37.086 18.02-55.105 0h-0.003907c-5.4922-5.4961-14.398-5.4961-19.891 0-5.4961 5.4922-5.4961 14.398 0 19.891 11.945 13.727 29.25 21.609 47.445 21.609s35.5-7.8828 47.445-21.609c5.4961-5.4922 5.4961-14.398 0-19.891-5.4922-5.4961-14.398-5.4961-19.891 0z"/>
  <path d="m811.03 81.375c-57.809-52.371-133.03-81.375-211.03-81.375s-153.22 29.004-211.03 81.375c-117.47 7.4062-375.56 31.219-388.69 98.719-0.1875 0.89453-0.28125 1.8047-0.28125 2.7188v435.94c0 32.531 46.387 55.969 150.28 77.156 20.633 3.9375 41.949-1.4844 58.188-14.805 16.242-13.32 25.73-33.164 25.906-54.168-0.41406-78.121 0-312.5 0-312.5 0.007812-16.188-5.5781-31.875-15.812-44.418-10.234-12.539-24.484-21.156-40.344-24.395-108.47-21.562-147.38-50.438-149.81-61.594 8.1562-20.438 103.5-55.781 331.97-72.562-45.566 55.844-70.234 125.83-69.75 197.91v92.812c-8.125 5.7305-15.824 11.625-23.102 17.68-3.1992 2.6875-5.0391 6.6523-5.0234 10.828v196.24c-0.011719 17.785-4.8398 35.234-13.973 50.496-9.1289 15.262-22.223 27.766-37.891 36.188-6.0352 3.1953-8.9023 10.266-6.7969 16.762 0.46094 1.4141 0.9375 2.7109 1.2852 3.8711 2.3047 6.8242 7.1367 12.504 13.5 15.871 6.3672 3.3633 13.781 4.1602 20.719 2.2227 20.812-6.4688 41.25-24.75 55.031-39.562 0.011719 2.4414-0.11328 4.8828-0.375 7.3125-0.52734 7.0273 1.5898 14 5.9336 19.547 4.3477 5.5469 10.609 9.2734 17.559 10.441 6.9492 1.1719 14.086-0.29688 20.008-4.1133 35.035-22.973 63.859-54.242 83.906-91.031 12.605 14.922 26.996 28.238 42.844 39.656-37.77 14.176-73.027 34.305-104.44 59.625-9.9375 7.5938-84 65.438-90.75 115.12-99.469 64.219-159.28 147.47-177.94 247.69-4.3906 23.844 3.8438 48.27 21.777 64.586 13.684 12.121 31.41 18.68 49.688 18.383h874.78c18.277 0.29688 36.008-6.2617 49.688-18.383 17.938-16.316 26.172-40.742 21.777-64.586-18.562-100.22-78.469-183.47-177.84-247.69-6.8438-49.781-81.188-107.81-90.938-115.22-31.402-25.254-66.625-45.348-104.34-59.531 15.852-11.418 30.238-24.734 42.844-39.656 20.09 36.797 48.914 68.094 83.945 91.125 5.9375 3.793 13.078 5.2344 20.023 4.0469 6.9453-1.1875 13.195-4.9219 17.539-10.473 4.3398-5.5469 6.457-12.516 5.9375-19.543-0.26172-2.4297-0.38672-4.8711-0.375-7.3125 13.781 14.812 34.219 33.094 55.031 39.562 6.9375 1.9609 14.359 1.1719 20.73-2.1953 6.375-3.3711 11.203-9.0625 13.488-15.898 0.39453-1.1523 0.81641-2.4375 1.2734-3.8438 2.1016-6.5156-0.77734-13.602-6.8242-16.809-15.66-8.418-28.746-20.922-37.871-36.18-9.125-15.258-13.945-32.703-13.953-50.484v-196.24c0.015625-4.1758-1.8242-8.1406-5.0234-10.828-7.2773-6.043-14.977-11.938-23.102-17.68v-92.812c0.48438-72.074-24.184-142.06-69.75-197.91 228.47 16.781 323.81 52.125 331.97 72.562-2.5312 11.156-41.344 40.031-149.81 61.594-15.859 3.2383-30.109 11.855-40.344 24.395-10.234 12.543-15.82 28.23-15.812 44.418 0 0 0.41406 234.38 0 312.5 0.17578 21.004 9.6641 40.848 25.906 54.168 16.238 13.32 37.555 18.742 58.188 14.805 103.89-21.18 150.28-44.625 150.28-77.156v-435.94c0-0.91406-0.09375-1.8242-0.28125-2.7188-13.125-67.5-271.31-91.312-388.69-98.719zm-492.28 251.44h46.875v37.5h-46.875zm0 126.56c0.039062-13.195 4.0586-26.07 11.535-36.945 7.4805-10.871 18.062-19.234 30.371-23.992h4.9688v104.34c0 6.5625 0.375 13.125 0.84375 19.594-13.684-3.9492-25.727-12.219-34.324-23.57-8.6016-11.355-13.301-25.188-13.395-39.43zm-42.188 712.5h-28.125v-65.625c0-7.7656 6.2969-14.062 14.062-14.062s14.062 6.2969 14.062 14.062zm19.969-294.94c-0.65625-24.656 37.406-64.875 68.062-90.562 28.875 43.969 84.469 80.438 134.16 112.97 40.219 26.438 81.656 53.625 87.188 73.031v40.406c-83.625-46.781-176.06-66.75-226.12-74.625-54.938-8.7188-62.719-37.312-63.281-61.219zm115.97 219.94c0 7.7656-6.2969 14.062-14.062 14.062h-28.125c-7.7656 0-14.062-6.2969-14.062-14.062v-46.875c0-7.7656 6.2969-14.062 14.062-14.062v-67.5c8.5859 1.5391 18 3.375 28.125 5.625v61.875c3.7305 0 7.3047 1.4805 9.9453 4.1172 2.6367 2.6406 4.1172 6.2148 4.1172 9.9453zm201.56 93.75h-28.125v-145.24c4.1016 3.1875 8.9375 5.2891 14.062 6.1133 5.125-0.82422 9.9609-2.9258 14.062-6.1133zm229.69-93.75c0 7.7656-6.2969 14.062-14.062 14.062h-28.125c-7.7656 0-14.062-6.2969-14.062-14.062v-46.875c0-7.7656 6.2969-14.062 14.062-14.062v-61.875c10.125-2.2031 19.547-4.0508 28.125-5.5781v67.5c7.75 0 14.035 6.2656 14.062 14.016zm79.688 9.375c0-7.7656 6.2969-14.062 14.062-14.062s14.062 6.2969 14.062 14.062v65.625h-28.125zm-88.031-319.88c30.656 25.688 68.625 65.906 68.062 90.562-0.5625 23.906-8.3438 52.5-63.281 61.219-50.062 7.875-142.5 27.844-226.12 74.625v-40.406c5.5312-19.406 46.969-46.594 87.188-73.031 49.688-32.531 105.28-69 134.16-112.97zm-79.5 32.062c2.5312 0.84375 5.0625 1.875 7.6875 2.7188-24 19.406-51.75 37.594-77.719 54.656-37.031 24.281-68.438 44.906-85.875 65.812-17.438-20.906-48.844-41.531-85.875-65.812-25.969-17.062-53.719-35.25-77.719-54.656 2.625-0.84375 5.1562-1.875 7.6875-2.7188 58.219-19.406 66.469-72.844 68.531-97.219 56.027 22.75 118.72 22.75 174.75 0 2.0625 24.375 10.312 77.812 68.531 97.219zm50.344-315.66c0 54.699-21.73 107.16-60.41 145.84-38.68 38.68-91.141 60.41-145.84 60.41s-107.16-21.73-145.84-60.41c-38.68-38.68-60.41-91.141-60.41-145.84v-52.875c12.16 9.1602 26.965 14.129 42.188 14.156h328.12c15.223-0.027344 30.027-4.9961 42.188-14.156zm0-109.03c-0.015625 11.184-4.4688 21.902-12.375 29.812-7.9102 7.9062-18.629 12.359-29.812 12.375h-328.12c-11.184-0.015625-21.902-4.4688-29.812-12.375-7.9062-7.9102-12.359-18.629-12.375-29.812v-84.375c0.015625-11.184 4.4688-21.902 12.375-29.812 7.9102-7.9062 18.629-12.359 29.812-12.375h328.12c11.184 0.015625 21.902 4.4688 29.812 12.375 7.9062 7.9102 12.359 18.629 12.375 29.812zm27.281 128.62c0.46875-6.4688 0.84375-13.031 0.84375-19.594v-104.34h4.9688c17.207 6.6094 30.824 20.184 37.492 37.367 6.668 17.188 5.7656 36.391-2.4805 52.875-8.2461 16.488-23.074 28.723-40.824 33.695zm47.719-189.56v37.5h-46.875v-37.5z"/>
 </g>
</svg>
