<?xml version="1.0" encoding="UTF-8"?>
<svg width="1200pt" height="1200pt" version="1.1" viewBox="0 0 1200 1200" xmlns="http://www.w3.org/2000/svg">
 <path d="m81 602.44c44.531 98.531 172.22 262.5 281.44 343.12-23.355 22.504-36.953 53.27-37.875 85.688 0 94.594 121.03 168.75 275.44 168.75s275.44-74.156 275.44-168.75c-0.92188-32.418-14.52-63.184-37.875-85.688 109.31-80.625 236.91-244.59 281.44-343.12 50.062-28.219 81-68.906 81-114.94 0-54.656-44.156-103.5-118.5-131.91-4.0977-43.297-12.258-86.109-24.375-127.88 11.723-14.812 20.332-31.84 25.312-50.062 6.6172-1.0117 12.652-4.3555 17.02-9.4258 4.3672-5.0703 6.7773-11.539 6.793-18.23v-18.75c-0.015625-6.6914-2.4258-13.16-6.793-18.23-4.3672-5.0703-10.402-8.4141-17.02-9.4258-10.102-37.234-35.086-68.664-69.078-86.906s-73.996-21.684-110.61-9.5156c-36.609 12.164-66.594 38.867-82.906 73.828-9.207 2.1797-17.406 7.3984-23.277 14.816-5.8672 7.418-9.0625 16.598-9.0664 26.059v37.5c0.003906 9.4609 3.1992 18.641 9.0664 26.059 5.8711 7.418 14.07 12.637 23.277 14.816 4.418 9.8555 10.055 19.113 16.781 27.562-12.117 41.734-20.277 84.516-24.375 127.78-25.543 9.3125-49.34 22.844-70.406 40.031-82.875-14.344-206.34-14.531-284.16-0.46875-20.98-16.938-44.609-30.305-69.938-39.562-4.0977-43.266-12.258-86.047-24.375-127.78 6.7266-8.4492 12.363-17.707 16.781-27.562 9.207-2.1797 17.406-7.3984 23.277-14.816 5.8672-7.418 9.0625-16.598 9.0664-26.059v-37.5c-0.003906-9.4609-3.1992-18.641-9.0664-26.059-5.8711-7.418-14.07-12.637-23.277-14.816-16.312-34.961-46.297-61.664-82.906-73.828-36.613-12.168-76.617-8.7266-110.61 9.5156s-58.977 49.672-69.078 86.906c-6.6172 1.0117-12.652 4.3555-17.02 9.4258-4.3672 5.0703-6.7773 11.539-6.793 18.23v18.75c0.015625 6.6914 2.4258 13.16 6.793 18.23 4.3672 5.0703 10.402 8.4141 17.02 9.4258 4.9805 18.223 13.59 35.25 25.312 50.062-12.117 41.766-20.277 84.578-24.375 127.88-74.344 28.406-118.5 77.25-118.5 131.91 0 46.031 30.938 86.719 81 114.94zm628.03 432.28c-3.8359 18.23-15.926 33.648-32.719 41.719-23.531 12.379-49.723 18.844-76.312 18.844s-52.781-6.4648-76.312-18.844c-16.793-8.0703-28.883-23.488-32.719-41.719-13.031-65.531-7.4062-141.84 16.688-232.22 26.332 20.652 58.832 31.875 92.297 31.875s65.965-11.223 92.297-31.875c24.188 90.562 29.812 166.78 16.781 232.22zm-186.94-284.72h155.81c12.586-0.046875 24.543-5.5117 32.812-15-12.965 28.484-36.41 50.875-65.461 62.52-29.047 11.641-61.469 11.641-90.516 0-29.051-11.645-52.496-34.035-65.461-62.52 8.2695 9.4883 20.227 14.953 32.812 15zm-32.812-116.25c12.965-28.484 36.41-50.875 65.461-62.52 29.047-11.641 61.469-11.641 90.516 0 29.051 11.645 52.496 34.035 65.461 62.52-8.2695-9.4883-20.227-14.953-32.812-15h-155.81c-12.586 0.046875-24.543 5.5117-32.812 15zm457.59-605.62c23.246 0.015625 45.914 7.2383 64.883 20.668 18.973 13.434 33.316 32.414 41.055 54.332h-73.031c-3.4609-7.0195-8.8164-12.934-15.457-17.074s-14.309-6.3477-22.137-6.3633h-89.719c20.844-31.918 56.285-51.277 94.406-51.562zm-4.6875 173.44c7.8281-0.015625 15.496-2.2227 22.137-6.3633s11.996-10.055 15.457-17.074h73.031c-9.3633 26.574-28.371 48.66-53.258 61.875-24.883 13.219-53.824 16.602-81.086 9.4844-27.262-7.1211-50.852-24.227-66.094-47.922zm-82.594 49.125c24.789 19.785 55.562 30.562 87.281 30.562s62.492-10.777 87.281-30.562c21.656 83.062 26.531 153.19 14.438 213.38-3.5469 16.902-14.73 31.203-30.281 38.719-44.719 23.531-98.156 23.531-142.88 0-15.551-7.5156-26.734-21.816-30.281-38.719-12.094-60.281-7.2188-130.31 14.438-213.38zm-606.47-222.56c38.184 0.13672 73.719 19.527 94.5 51.562h-89.812c-7.8281 0.015625-15.496 2.2227-22.137 6.3633s-11.996 10.055-15.457 17.074h-73.031c7.7383-21.918 22.082-40.898 41.055-54.332 18.969-13.43 41.637-20.652 64.883-20.668zm-32.906 150c3.4609 7.0195 8.8164 12.934 15.457 17.074s14.309 6.3477 22.137 6.3633h89.812c-15.242 23.695-38.832 40.801-66.094 47.922-27.262 7.1172-56.203 3.7344-81.086-9.4844-24.887-13.215-43.895-35.301-53.258-61.875zm-54.375 72.562c24.789 19.785 55.562 30.562 87.281 30.562s62.492-10.777 87.281-30.562c21.656 83.062 26.531 153.09 14.438 213.38-3.5469 16.902-14.73 31.203-30.281 38.719-44.719 23.531-98.156 23.531-142.88 0-15.551-7.5156-26.734-21.816-30.281-38.719-12.094-60.188-7.2188-130.31 14.438-213.38zm87.281 392.34c141.94 0 253.12-68.344 253.12-155.53-0.35156-24.68-9.0039-48.523-24.562-67.688 78.488-9.2812 157.81-9.0898 236.25 0.5625-15.32 19.051-23.836 42.68-24.188 67.125 0 87.188 111.19 155.53 253.12 155.53 44.684 0.375 89.094-7.0156 131.25-21.844-53.156 96.562-167.16 237.09-261.84 305.16-23.617-17.773-49.914-31.668-77.906-41.156-5.3008-35.504-12.973-70.613-22.969-105.09 14.18-17.086 24.336-37.145 29.719-58.688 6.582-1.0469 12.578-4.4062 16.906-9.4766 4.332-5.0664 6.7109-11.512 6.7188-18.18v-18.75c-0.007812-6.668-2.3867-13.113-6.7188-18.18-4.3281-5.0703-10.324-8.4297-16.906-9.4766-10.977-43.371-40.773-79.559-81.23-98.652s-87.332-19.094-127.79 0-70.254 55.281-81.23 98.652c-6.582 1.0469-12.578 4.4062-16.906 9.4766-4.332 5.0664-6.7109 11.512-6.7188 18.18v18.75c0.007812 6.668 2.3867 13.113 6.7188 18.18 4.3281 5.0703 10.324 8.4297 16.906 9.4766 5.3828 21.543 15.539 41.602 29.719 58.688-9.9961 34.48-17.668 69.59-22.969 105.09-27.992 9.4883-54.289 23.383-77.906 41.156-94.594-68.062-208.69-208.59-261.75-305.16 42.121 14.836 86.5 22.227 131.16 21.844z" fill="#fff"/>
</svg>
